<svg xmlns="http://www.w3.org/2000/svg" width="169.396" height="171.079" viewBox="0 0 169.396 171.079">
  <g id="Group_1109" data-name="Group 1109" transform="translate(22508.754 -2625.203)">
    <g id="coin" transform="translate(-22508.754 2625.203)">
      <path id="XMLID_122_" d="M111.861,112.146c-29.83,29.83-73.994,34.844-102.792,13.105a64.033,64.033,0,0,0,5.808,6.71c28.219,28.219,77.245,24.951,109.5-7.3s35.519-81.28,7.3-109.5a63.7,63.7,0,0,0-6.707-5.808c21.739,28.8,16.724,72.962-13.105,102.792" transform="translate(16.84 18.237)" fill="#e3bc6a"/>
      <path id="XMLID_121_" d="M136.286,19.772c28.222,28.222,24.954,77.245-7.3,109.5s-81.277,35.522-109.5,7.3-24.954-77.245,7.3-109.5,81.277-35.522,109.5-7.3" transform="translate(-0.285 1.112)" fill="#f8cb6f"/>
      <path id="XMLID_89_" d="M59.757,136.175c-15.465,0-29.57-5.593-39.726-15.745-23.576-23.576-20.3-65.213,7.3-92.813C41.976,12.969,61.326,4.571,80.419,4.571c15.465,0,29.57,5.593,39.726,15.745,23.576,23.576,20.3,65.213-7.3,92.813C98.2,127.771,78.853,136.175,59.757,136.175" transform="translate(7.512 8.912)" opacity="0.1"/>
      <path id="XMLID_119_" d="M44.6,46.376,57.15,58.929c1.36-1.445,2.672-2.917,3.92-4.422L48.537,41.975c-1.248,1.5-2.584,2.956-3.941,4.4" transform="translate(86.104 81.836)" fill="rgba(0,0,0,0.1)"/>
      <path id="XMLID_118_" d="M40.895,49.327l12.56,12.56c1.549-1.2,3.065-2.469,4.554-3.787L45.47,45.56c-1.5,1.318-3.023,2.563-4.575,3.767" transform="translate(78.889 88.825)" fill="rgba(0,0,0,0.1)"/>
      <path id="XMLID_117_" d="M47.746,42.906,60.3,55.457q1.708-2.522,3.23-5.112L51,37.821c-1.015,1.726-2.121,3.413-3.256,5.085" transform="translate(92.246 73.737)" fill="rgba(0,0,0,0.1)"/>
      <path id="XMLID_116_" d="M50.29,38.917,62.855,51.48c.888-1.953,1.69-3.926,2.425-5.914L52.732,33.018C52,35,51.175,36.968,50.29,38.917" transform="translate(97.206 64.373)" fill="rgba(0,0,0,0.1)"/>
      <path id="XMLID_115_" d="M36.62,51.664,49.174,64.218c1.779-.962,3.543-1.97,5.277-3.068L41.888,48.591C40.154,49.685,38.4,50.7,36.62,51.664" transform="translate(70.554 94.735)" fill="rgba(0,0,0,0.1)"/>
      <path id="XMLID_114_" d="M31.683,53.247,44.234,65.8c2.044-.673,4.082-1.41,6.1-2.245L37.786,51.008c-2.018.832-4.053,1.569-6.1,2.239" transform="translate(60.929 99.447)" fill="rgba(0,0,0,0.1)"/>
      <path id="XMLID_113_" d="M24.555,53.649,37.117,66.212q3.765-.212,7.554-.788L32.1,52.856c-2.522.381-5.038.655-7.548.793" transform="translate(47.032 103.05)" fill="rgba(0,0,0,0.1)"/>
      <path id="XMLID_112_" d="M16.688,52.328,29.283,64.923a70.9,70.9,0,0,0,10.294,1.956L26.988,54.287a70.991,70.991,0,0,1-10.3-1.959" transform="translate(31.694 102.02)" fill="rgba(0,0,0,0.1)"/>
      <path id="XMLID_111_" d="M52.368,33.407,64.91,45.949q.717-3.619,1.1-7.241L53.453,26.151c-.254,2.419-.611,4.837-1.085,7.256" transform="translate(101.257 50.985)" fill="rgba(0,0,0,0.1)"/>
      <path id="XMLID_88_" d="M66.171,40.856a73.162,73.162,0,0,0-1.091-9.433L52.452,18.8a72.443,72.443,0,0,1,1.206,9.548Z" transform="translate(101.421 36.645)" fill="rgba(0,0,0,0.1)"/>
      <path id="XMLID_109_" d="M15.463,68.7A14.765,14.765,0,0,1,.715,53.95a2.95,2.95,0,1,1,5.9,0A8.86,8.86,0,0,0,15.463,62.8a2.95,2.95,0,0,1,0,5.9" transform="translate(0.553 99.431)" fill="#0d2828"/>
      <path id="XMLID_108_" d="M65.463,20.647a2.951,2.951,0,0,1-2.95-2.95c0-6.507-3.97-11.8-8.849-11.8a2.95,2.95,0,0,1,0-5.9C61.8,0,68.413,7.937,68.413,17.7a2.951,2.951,0,0,1-2.95,2.95" transform="translate(98.034)" fill="#0d2828"/>
      <path id="XMLID_107_" d="M47.665,79.4a2.95,2.95,0,1,1,0-5.9A26.579,26.579,0,0,0,74.211,46.95a2.95,2.95,0,0,1,5.9,0A32.484,32.484,0,0,1,47.665,79.4" transform="translate(86.336 85.784)" fill="#0d2828"/>
      <path id="XMLID_106_" d="M54.665,67.748a2.95,2.95,0,0,1,0-5.9c4.8,0,8.849-2.7,8.849-5.9a2.95,2.95,0,0,1,5.9,0c0,6.507-6.616,11.8-14.748,11.8" transform="translate(99.984 103.331)" fill="#0d2828"/>
    </g>
    <g id="Group_1089" data-name="Group 1089" transform="translate(-22476.123 2659.576)">
      <g id="Group_707" data-name="Group 707" transform="translate(0 0)">
        <path id="Path_1113" data-name="Path 1113" d="M293.9,488.15a3.62,3.62,0,0,1,2.01-6.65,3.537,3.537,0,0,1,3.673,3.66c0,.838-.026.941-.683,2.139a3.713,3.713,0,0,1-.941.863c-.722.49-.722.49-2.036.49H294.6Z" transform="translate(-244.897 -400.799)" fill="#fff"/>
        <path id="Path_1114" data-name="Path 1114" d="M191.864,486.2a3.794,3.794,0,0,1-1.611-1.637,3.164,3.164,0,0,1,.206-2.9,3.114,3.114,0,0,1,4.188-1.07,2.147,2.147,0,0,0,.631.322c.077,0,.232.206.348.451s.258.451.309.451a1.414,1.414,0,0,1,.245.657,3.137,3.137,0,0,1-1.3,3.466,2.38,2.38,0,0,1-1.585.49A2.3,2.3,0,0,1,191.864,486.2Z" transform="translate(-159.302 -399.634)" fill="#fff"/>
        <path id="Path_1115" data-name="Path 1115" d="M414.02,462.707a4.129,4.129,0,0,1-2.912-3.853,3.678,3.678,0,0,1,.18-1.637,1.681,1.681,0,0,1,.335-.657c.051,0,.1-.09.1-.206a4.679,4.679,0,0,1,1.546-1.521,4.956,4.956,0,0,1,4.42.232,6.831,6.831,0,0,1,1.057,1.057,2.582,2.582,0,0,1,.7,1.624,4.117,4.117,0,0,1-2.242,4.691A4.929,4.929,0,0,1,414.02,462.707Z" transform="translate(-344.206 -377.212)" fill="#fff"/>
        <path id="Path_1116" data-name="Path 1116" d="M240.183,446.953a2.639,2.639,0,0,1-1.508-1.894,3.473,3.473,0,0,1,.477-2.9,3.135,3.135,0,0,1,4.82-.116,2.072,2.072,0,0,1,.67,1.366,3.013,3.013,0,0,1-1.546,3.505A3.144,3.144,0,0,1,240.183,446.953Z" transform="translate(-200.026 -365.492)" fill="#fff"/>
        <path id="Path_1117" data-name="Path 1117" d="M339.716,431.054a3.327,3.327,0,0,1-1.765-1.546,2.518,2.518,0,0,1-.451-1.791,2.982,2.982,0,0,1,.309-1.637,3.71,3.71,0,0,1,6.559-.1,2.64,2.64,0,0,1,.348,1.675,2.544,2.544,0,0,1-.451,1.856,3.265,3.265,0,0,1-1.817,1.559A5.306,5.306,0,0,1,339.716,431.054Z" transform="translate(-282.804 -350.753)" fill="#fff"/>
        <path id="Path_1118" data-name="Path 1118" d="M155.071,441.4a2.812,2.812,0,0,1-1.637-2.861,2.777,2.777,0,0,1,2.925-2.319,2.74,2.74,0,0,1,1.907,4.433,2.441,2.441,0,0,1-2,.941A3.924,3.924,0,0,1,155.071,441.4Z" transform="translate(-128.694 -361.339)" fill="#fff"/>
        <path id="Path_1119" data-name="Path 1119" d="M203.692,402.231a2.4,2.4,0,0,1-1.4-1.276,2.74,2.74,0,0,1,3-3.918,2.953,2.953,0,0,1,1.856,1.6,3.746,3.746,0,0,1-.09,2.384,2.6,2.6,0,0,1-2.345,1.379A3.192,3.192,0,0,1,203.692,402.231Z" transform="translate(-169.483 -330.867)" fill="#fff"/>
        <path id="Path_1120" data-name="Path 1120" d="M284.874,389.92a2.993,2.993,0,0,1-1.559-3.6,2.917,2.917,0,0,1,1.662-2.062,3.2,3.2,0,0,1,3.106.309.521.521,0,0,0,.309.206c.412.013.979,1.379.979,2.371a2.849,2.849,0,0,1-.953,2.333A3.011,3.011,0,0,1,284.874,389.92Z" transform="translate(-237.469 -319.847)" fill="#fff"/>
        <path id="Path_1121" data-name="Path 1121" d="M133.495,396.578a2.285,2.285,0,0,1-.464-4.059,2.345,2.345,0,0,1,3.08.309l.528.49v1.031c0,.992-.013,1.044-.451,1.559A2.507,2.507,0,0,1,133.495,396.578Z" transform="translate(-110.789 -326.958)" fill="#fff"/>
        <path id="Path_1122" data-name="Path 1122" d="M380.6,376.659a1.475,1.475,0,0,1-.464-1.469,1.605,1.605,0,0,1,2.281-.954,1.474,1.474,0,0,1,.631,1.83,1.206,1.206,0,0,1-1.392.967C381.066,377.033,380.912,376.982,380.6,376.659Z" transform="translate(-319.258 -312.301)" fill="#fff"/>
        <path id="Path_1123" data-name="Path 1123" d="M182.647,357.607a2.433,2.433,0,0,1-.593-4.3,2.333,2.333,0,0,1,3.531,1.753,1.815,1.815,0,0,1-.258,1.314,1.728,1.728,0,0,1-1.005,1.031A1.935,1.935,0,0,1,182.647,357.607Z" transform="translate(-151.906 -294.316)" fill="#fff"/>
        <path id="Path_1124" data-name="Path 1124" d="M409.567,364.912c-.5-.49-.567-.632-.567-1.121A1.726,1.726,0,0,1,410.791,362a1.344,1.344,0,0,1,1.16.451,1.605,1.605,0,0,1,.013,2.526,1.154,1.154,0,0,1-1.16.5C410.173,365.479,410.083,365.441,409.567,364.912Z" transform="translate(-343.431 -302.112)" fill="#fff"/>
        <path id="Path_1125" data-name="Path 1125" d="M125.933,355.783c0-.129-.129-.193-.374-.193-.271,0-.515-.155-.966-.644-.528-.567-.593-.7-.593-1.25a2.008,2.008,0,0,1,.889-1.765,2.814,2.814,0,0,1,2.217-.039,2.165,2.165,0,0,1,.7,2.706,1.826,1.826,0,0,1-1.34.992c-.155,0-.271.077-.271.193s-.052.193-.129.193S125.933,355.886,125.933,355.783Z" transform="translate(-104.113 -293.34)" fill="#fff"/>
        <path id="Path_1126" data-name="Path 1126" d="M248.876,345.216a3.334,3.334,0,0,1-1.6-1.392,4.822,4.822,0,0,1-.013-2.461,2.974,2.974,0,0,1,1.727-1.392,2.912,2.912,0,0,1,2.345.464,2.746,2.746,0,0,1-.013,4.317,1.989,1.989,0,0,1-1.353.528A4.381,4.381,0,0,1,248.876,345.216Z" transform="translate(-207.309 -283.304)" fill="#fff"/>
        <path id="Path_1127" data-name="Path 1127" d="M440.928,343.816A1.941,1.941,0,0,1,440,342.1a1.646,1.646,0,0,1,.593-1.443,2.008,2.008,0,0,1,3.4,1.379,2.211,2.211,0,0,1-.992,1.83A2.476,2.476,0,0,1,440.928,343.816Z" transform="translate(-369.374 -283.731)" fill="#fff"/>
        <path id="Path_1128" data-name="Path 1128" d="M352.126,342.977a1.7,1.7,0,0,1-.013-2.474,1.349,1.349,0,0,1,1.237-.5,1.232,1.232,0,0,1,1.173.477,1.584,1.584,0,0,1-.039,2.526,1.665,1.665,0,0,1-2.358-.026Z" transform="translate(-295.225 -283.751)" fill="#fff"/>
        <path id="Path_1129" data-name="Path 1129" d="M383.077,321.763a2.2,2.2,0,0,1-.7-.786,2.037,2.037,0,0,1,2.552-2.809,1.907,1.907,0,0,1,1.2,1.856,1.988,1.988,0,0,1-.979,1.791A2.473,2.473,0,0,1,383.077,321.763Z" transform="translate(-320.822 -265.325)" fill="#fff"/>
        <path id="Path_1130" data-name="Path 1130" d="M173.881,316.172a.329.329,0,0,0-.283-.193c-.7,0-1.585-1.1-1.6-1.959a2.065,2.065,0,0,1,2.784-1.907,2.126,2.126,0,0,1,1.224,2.448,2.224,2.224,0,0,1-1.34,1.379.667.667,0,0,0-.438.245C174.139,316.417,173.984,316.417,173.881,316.172Z" transform="translate(-144.399 -260.21)" fill="#fff"/>
        <path id="Path_1131" data-name="Path 1131" d="M471.628,311.947c0-.116-.258-.283-.631-.425a2.3,2.3,0,0,1-.3-4.291,2.68,2.68,0,0,1,2.912.631c.232.309.271.554.271,1.533v1.16l-.515.438a2.972,2.972,0,0,1-.954.554,1.511,1.511,0,0,0-.606.361C471.666,312.089,471.64,312.1,471.628,311.947Z" transform="translate(-392.061 -255.994)" fill="#fff"/>
        <path id="Path_1132" data-name="Path 1132" d="M125.812,318.693a2.24,2.24,0,0,1-.812-1.533,2.072,2.072,0,0,1,.683-1.25,2.329,2.329,0,0,1,1.92-.245,1.844,1.844,0,0,1,.838,2.371A1.913,1.913,0,0,1,125.812,318.693Z" transform="translate(-104.976 -263.376)" fill="#fff"/>
        <path id="Path_1133" data-name="Path 1133" d="M311.4,312.776a2.079,2.079,0,0,1-1.224-1.649,1.77,1.77,0,0,1,.232-1.16c.425-.85.644-.966,1.8-.966h.992l.464.541a2.037,2.037,0,0,1,.1,2.577C313.308,312.776,312.638,312.956,311.4,312.776Z" transform="translate(-260.377 -257.817)" fill="#fff"/>
        <path id="Path_1134" data-name="Path 1134" d="M226.747,299.621a1.95,1.95,0,0,1-.747-1.74c0-.657.219-1.572.361-1.572a1.472,1.472,0,0,0,.438-.322,2.175,2.175,0,0,1,2.139-.4,2.347,2.347,0,0,1,1.16,3.66c-.58.747-.709.8-1.83.8C227.276,300.046,227.2,300.02,226.747,299.621Z" transform="translate(-189.673 -246.402)" fill="#fff"/>
        <path id="Path_1135" data-name="Path 1135" d="M2.9,266.219a5.333,5.333,0,0,1-2.217-1.753c-.49-.709-.49-.722-.528-2.139-.039-1.443.09-2.1.515-2.552a3.322,3.322,0,0,0,.387-.515c.232-.348.412-.477,1.585-1.07a4.082,4.082,0,0,1,3.3.013,2.385,2.385,0,0,1,.76.451c0,.064.077.116.168.116a1.31,1.31,0,0,1,.735.747c0,.09.052.155.116.155a2.385,2.385,0,0,1,.451.76,4.141,4.141,0,0,1-.335,3.956.882.882,0,0,0-.232.4,4.32,4.32,0,0,1-1.817,1.34A5.645,5.645,0,0,1,2.9,266.219Z" transform="translate(-0.15 -214.409)" fill="#fff"/>
        <path id="Path_1136" data-name="Path 1136" d="M414.147,289.871c0-.129-.193-.271-.477-.374a2.3,2.3,0,0,1-1.366-3.479,2.332,2.332,0,0,1,4.214.85c.116.76-.283,2.126-.618,2.126a1.222,1.222,0,0,0-.464.258,1.189,1.189,0,0,1-.541.258.891.891,0,0,0-.49.284C414.2,290.013,414.147,290.039,414.147,289.871Z" transform="translate(-345.713 -237.607)" fill="#fff"/>
        <path id="Path_1137" data-name="Path 1137" d="M341.353,278.854a2.468,2.468,0,0,1-1.353-2.2,2.326,2.326,0,0,1,3.6-1.92,2.425,2.425,0,0,1,.348,3.66c-.4.438-.464.464-1.379.5A7.241,7.241,0,0,1,341.353,278.854Z" transform="translate(-285.332 -228.797)" fill="#fff"/>
        <path id="Path_1138" data-name="Path 1138" d="M134.709,288.271a1.64,1.64,0,0,1-.425-2.191,1.573,1.573,0,0,1,2.448-.077,1.389,1.389,0,0,1-.193,2.062,1.118,1.118,0,0,1-.992.425A1.33,1.33,0,0,1,134.709,288.271Z" transform="translate(-112.589 -238.301)" fill="#fff"/>
        <path id="Path_1139" data-name="Path 1139" d="M174.805,279.469a1.928,1.928,0,0,1-.67-2.345,1.717,1.717,0,0,1,1.688-.9,1.65,1.65,0,0,1,1.572,1.688A1.742,1.742,0,0,1,174.805,279.469Z" transform="translate(-146.14 -230.52)" fill="#fff"/>
        <path id="Path_1140" data-name="Path 1140" d="M497.855,264.529a3.681,3.681,0,0,1-1.508-1.16,4.464,4.464,0,0,1-.219-2.191,2.691,2.691,0,0,1,2.822-1.972,2.742,2.742,0,0,1,1.418,4.846A2.422,2.422,0,0,1,497.855,264.529Z" transform="translate(-415.35 -216.013)" fill="#fff"/>
        <path id="Path_1141" data-name="Path 1141" d="M218.94,259.124c0-.064-.129-.129-.3-.129a2.124,2.124,0,0,1-1.443-1.121A1.972,1.972,0,0,1,218.979,255,1.945,1.945,0,0,1,221,257.036c0,.67-.026.735-.631,1.327a2.021,2.021,0,0,1-.9.631c-.142,0-.271.064-.271.129a.122.122,0,0,1-.129.129A.129.129,0,0,1,218.94,259.124Z" transform="translate(-182.188 -212.702)" fill="#fff"/>
        <path id="Path_1142" data-name="Path 1142" d="M439.877,242.515a2.882,2.882,0,0,1-1.714-1.456,3.437,3.437,0,0,1,.116-2.513,2.8,2.8,0,0,1,2.681-1.353,2.764,2.764,0,0,1,2.242,3.544A2.654,2.654,0,0,1,439.877,242.515Z" transform="translate(-364.73 -197.672)" fill="#fff"/>
        <path id="Path_1143" data-name="Path 1143" d="M75.19,219.92a3.828,3.828,0,0,1-2.023-2,3.749,3.749,0,0,1,.09-2.938A3.249,3.249,0,0,1,76.568,213a2.732,2.732,0,0,1,2.294.683,3.624,3.624,0,0,1,1.366,3.235A3.669,3.669,0,0,1,75.19,219.92Z" transform="translate(-63.533 -177.296)" fill="#fff"/>
        <path id="Path_1144" data-name="Path 1144" d="M366.86,233.042a2.783,2.783,0,0,1-1.495-3.106,3.739,3.739,0,0,1,1.327-1.753,4.479,4.479,0,0,1,2.668-.013,3.472,3.472,0,0,1,1.315,1.791,2.692,2.692,0,0,1-1.327,2.99A3.112,3.112,0,0,1,366.86,233.042Z" transform="translate(-306.402 -190.023)" fill="#fff"/>
        <path id="Path_1145" data-name="Path 1145" d="M514.8,204.458a3.172,3.172,0,0,1-1.8-2.8,3.217,3.217,0,0,1,1.469-2.719c.477-.322.644-.348,1.7-.348a2.325,2.325,0,0,1,2.294.876,3.272,3.272,0,0,1,.657,3.247c-.232.554-1.07,1.6-1.289,1.6a1.678,1.678,0,0,0-.529.193A3.967,3.967,0,0,1,514.8,204.458Z" transform="translate(-430.083 -165.438)" fill="#fff"/>
        <path id="Path_1146" data-name="Path 1146" d="M147.472,194.019a2.584,2.584,0,0,1-1.972-3.054v-1.3l.49-.593a3.3,3.3,0,0,1,3.737-.9,3.145,3.145,0,0,1,.76,5.258A3.356,3.356,0,0,1,147.472,194.019Z" transform="translate(-122.017 -156.555)" fill="#fff"/>
        <path id="Path_1147" data-name="Path 1147" d="M311.18,204.071a1.8,1.8,0,0,1-1.018-1.907,1.746,1.746,0,0,1,1.108-1.688,2,2,0,0,1,2.861,1.92,2.073,2.073,0,0,1-1.817,1.92A1.744,1.744,0,0,1,311.18,204.071Z" transform="translate(-260.381 -167.068)" fill="#fff"/>
        <path id="Path_1148" data-name="Path 1148" d="M457.472,182.515a2.392,2.392,0,0,1-1.546-1.418,3.1,3.1,0,0,1,.928-4.072c.567-.412.644-.425,1.765-.425a3.362,3.362,0,0,1,1.547.206,3.918,3.918,0,0,1,1.417,1.559,4.174,4.174,0,0,1,.013,2.448,3.714,3.714,0,0,1-1.727,1.688A3.9,3.9,0,0,1,457.472,182.515Z" transform="translate(-380.018 -147.116)" fill="#fff"/>
        <path id="Path_1149" data-name="Path 1149" d="M211.238,185.322c-.142-.026-.387-.077-.541-.1a2.531,2.531,0,0,1-1.34-1.289,3.094,3.094,0,0,1,.49-3.17,3.951,3.951,0,0,1,1.83-.76,2.751,2.751,0,0,1,2.564,1.649C214.923,183.9,213.377,185.786,211.238,185.322Z" transform="translate(-175.446 -150.024)" fill="#fff"/>
        <path id="Path_1150" data-name="Path 1150" d="M265.688,190.51a1.435,1.435,0,0,1-1.018-.593,2.06,2.06,0,0,1-.67-1.6,2.207,2.207,0,0,1,.618-1.6,2.357,2.357,0,0,1,1.869-.722,1.629,1.629,0,0,1,1.289.464,2.067,2.067,0,0,1,.838,2.126,1.525,1.525,0,0,1-.554,1.276,2.7,2.7,0,0,1-.7.567A4.313,4.313,0,0,1,265.688,190.51Z" transform="translate(-221.556 -155.115)" fill="#fff"/>
        <path id="Path_1151" data-name="Path 1151" d="M385.8,172.07a3.164,3.164,0,0,1-2-2.977A2.954,2.954,0,0,1,386.983,166a3.105,3.105,0,0,1,2.719,1.6,4.885,4.885,0,0,1,.026,2.977,4.415,4.415,0,0,1-1.366,1.353A6.448,6.448,0,0,1,385.8,172.07Z" transform="translate(-321.802 -138.281)" fill="#fff"/>
        <path id="Path_1152" data-name="Path 1152" d="M48.292,152.073a3.5,3.5,0,0,1-1.8-1.572,3.186,3.186,0,0,1-.425-1.6,2.739,2.739,0,0,1,.322-1.8,3.4,3.4,0,0,1,.915-1.237,3.839,3.839,0,0,1,4.858.155,3.1,3.1,0,0,1,1.1,2.655,3.144,3.144,0,0,1-1.1,2.668A4.033,4.033,0,0,1,48.292,152.073Z" transform="translate(-40.128 -120.753)" fill="#fff"/>
        <path id="Path_1153" data-name="Path 1153" d="M319.086,157.492a1.778,1.778,0,0,1-.7-2.668c.3-.451.4-.5,1.031-.593a2.445,2.445,0,0,1,1.185.1c.412.155.5.271.709.851a1.629,1.629,0,0,1-.593,2.126A1.585,1.585,0,0,1,319.086,157.492Z" transform="translate(-267.103 -128.699)" fill="#fff"/>
        <path id="Path_1154" data-name="Path 1154" d="M118.963,126.632a3.276,3.276,0,0,1-1.624-1.495,2.332,2.332,0,0,1-.322-1.649,2.074,2.074,0,0,1,.541-1.624,2.762,2.762,0,0,1,2.539-1.276,2.457,2.457,0,0,1,1.675.4,3.2,3.2,0,0,1-.631,5.683A3.785,3.785,0,0,1,118.963,126.632Z" transform="translate(-98.116 -100.445)" fill="#fff"/>
        <path id="Path_1155" data-name="Path 1155" d="M284.02,136.866a1.891,1.891,0,0,1-.876-1.985,1.779,1.779,0,0,1,2.126-1.753,1.471,1.471,0,0,1,1.224.593,1.419,1.419,0,0,1,.58,1.211,1.912,1.912,0,0,1-2.023,2.152A2.88,2.88,0,0,1,284.02,136.866Z" transform="translate(-237.703 -111.059)" fill="#fff"/>
        <path id="Path_1156" data-name="Path 1156" d="M462.884,106.649a3.952,3.952,0,0,1-1.985-1.714,2.62,2.62,0,0,1-.4-1.74,3.018,3.018,0,0,1,.928-2.461,3.283,3.283,0,0,1,2.68-1.134,3.432,3.432,0,0,1,3.389,2.217,2.651,2.651,0,0,1,.258,1.546,4.305,4.305,0,0,1-.3,1.379,4.543,4.543,0,0,1-1.972,1.869A10.151,10.151,0,0,1,462.884,106.649Z" transform="translate(-384.348 -82.909)" fill="#fff"/>
        <path id="Path_1157" data-name="Path 1157" d="M183.476,118.142a3.294,3.294,0,0,1-1.263-1.43c-.322-1.121.064-2.874.67-3.041.129-.026.232-.09.232-.142,0-.219.967-.528,1.65-.528a2.553,2.553,0,0,1,2.6,2.68,2.655,2.655,0,0,1-1.044,2.139c-.528.451-.58.464-1.585.464A3.915,3.915,0,0,1,183.476,118.142Z" transform="translate(-152.772 -94.189)" fill="#fff"/>
        <path id="Path_1158" data-name="Path 1158" d="M238.125,122.515a2.741,2.741,0,0,1-.747-.851,1.764,1.764,0,0,1-.3-1.34,2.268,2.268,0,0,1,2.5-2.178,2.3,2.3,0,0,1,1.92,3.2,1.941,1.941,0,0,1-2.113,1.418A2.3,2.3,0,0,1,238.125,122.515Z" transform="translate(-198.957 -98.518)" fill="#fff"/>
        <path id="Path_1159" data-name="Path 1159" d="M390.428,96.113a3.916,3.916,0,0,1-2.075-2.023,2.477,2.477,0,0,1-.284-1.611,3.022,3.022,0,0,1,.5-1.624,4.335,4.335,0,0,1,.825-.992,2.357,2.357,0,0,0,.451-.374A3.79,3.79,0,0,1,391.7,89a3.4,3.4,0,0,1,2.088.657.719.719,0,0,0,.4.245.329.329,0,0,1,.258.232,3.491,3.491,0,0,0,.374.58,3.046,3.046,0,0,1,.567,1.972,3.79,3.79,0,0,1-.49,1.856,4.35,4.35,0,0,0-.425.515,4.153,4.153,0,0,1-1.147.876,2.762,2.762,0,0,1-1.6.4A3.81,3.81,0,0,1,390.428,96.113Z" transform="translate(-325.134 -74.073)" fill="#fff"/>
        <path id="Path_1160" data-name="Path 1160" d="M334.93,119.23a1.678,1.678,0,0,1-.554-2.152c.142-.374.283-.477.773-.619a1.718,1.718,0,0,1,1.83.464A1.6,1.6,0,0,1,334.93,119.23Z" transform="translate(-280.716 -97.155)" fill="#fff"/>
        <path id="Path_1161" data-name="Path 1161" d="M308.747,96.144A1.6,1.6,0,0,1,308,94.65a1.742,1.742,0,0,1,3.479,0,1.618,1.618,0,0,1-.773,1.508A2.638,2.638,0,0,1,308.747,96.144Z" transform="translate(-258.642 -77.622)" fill="#fff"/>
        <path id="Path_1162" data-name="Path 1162" d="M108.977,65.005a2.9,2.9,0,0,1-1.662-1.869,2.561,2.561,0,0,1,.026-2A2.886,2.886,0,0,1,110.265,59a3.015,3.015,0,0,1,2.255.928,3.33,3.33,0,0,1,.722,3.131,2.989,2.989,0,0,1-1.83,2A2.911,2.911,0,0,1,108.977,65.005Z" transform="translate(-89.832 -51.397)" fill="#fff"/>
        <path id="Path_1163" data-name="Path 1163" d="M273.424,76.239a2.344,2.344,0,0,1-.979-1.3,1.99,1.99,0,0,1,2.6-2.4,1.352,1.352,0,0,1,1.005.747,1.9,1.9,0,0,1-.3,2.629c-.425.451-.477.477-1.263.477A3.056,3.056,0,0,1,273.424,76.239Z" transform="translate(-228.642 -63.12)" fill="#fff"/>
        <path id="Path_1164" data-name="Path 1164" d="M173.92,57.284A2.635,2.635,0,0,1,172,54.629a2.561,2.561,0,0,1,1.134-2.2A1.778,1.778,0,0,1,174.616,52a2.237,2.237,0,0,1,1.946.735,2.611,2.611,0,0,1,.683,2.32,1.979,1.979,0,0,1-.979,1.765A2.617,2.617,0,0,1,173.92,57.284Z" transform="translate(-144.303 -45.299)" fill="#fff"/>
        <path id="Path_1165" data-name="Path 1165" d="M228.611,62.567A2.374,2.374,0,0,1,227,60.248a1.623,1.623,0,0,1,.516-1.366c.464-.606.554-.657,1.224-.735a2.362,2.362,0,0,1,2.217.49,1.957,1.957,0,0,1,.683,1.7,1.912,1.912,0,0,1-.838,1.778A2.142,2.142,0,0,1,228.611,62.567Z" transform="translate(-190.507 -50.608)" fill="#fff"/>
        <path id="Path_1166" data-name="Path 1166" d="M377.384,8.2A4.285,4.285,0,0,1,375.94.941,3.206,3.206,0,0,1,378.788,0h1.4l.76.49A3.9,3.9,0,0,1,382.938,4.1a4.374,4.374,0,0,1-.67,2.487,5.284,5.284,0,0,0-.438.58,4.427,4.427,0,0,1-1.121.735,3.2,3.2,0,0,1-1.907.477A6.048,6.048,0,0,1,377.384,8.2Z" transform="translate(-313.563 0)" fill="#fff"/>
      </g>
    </g>
  </g>
</svg>
