<svg xmlns="http://www.w3.org/2000/svg" width="138.238" height="172.473" viewBox="0 0 138.238 172.473">
  <g id="hacker" transform="translate(-50.814 0)">
    <path id="Path_1290" data-name="Path 1290" d="M187.888,78.806l-9.405-29.4A76.583,76.583,0,0,0,138.7,3.654a36.967,36.967,0,0,0-6.128-2.4C126.237-.435,113.332-.413,107,1.295a36.963,36.963,0,0,0-6.119,2.423A76.582,76.582,0,0,0,61.257,49.605l-9.3,29.434A24.509,24.509,0,0,0,59.1,104.79l24.827,21.9a27.875,27.875,0,0,0-9.7,21.143v22.11a2.526,2.526,0,0,0,2.526,2.526H163.11a2.526,2.526,0,0,0,2.526-2.526v-22.11a27.874,27.874,0,0,0-9.7-21.143l24.891-22.112A24.509,24.509,0,0,0,187.888,78.806Z" transform="translate(0 0)" fill="#0d2828"/>
    <g id="Group_1104" data-name="Group 1104" transform="translate(69.185 0)">
      <path id="Path_1291" data-name="Path 1291" d="M318.486,78.807,309.08,49.4A76.583,76.583,0,0,0,269.3,3.654a36.967,36.967,0,0,0-6.128-2.4c-3.748-1-9.793-1.4-15.418-1.2a40.818,40.818,0,0,1,9.137,1.2,32.581,32.581,0,0,1,5.657,2.4c17.4,8.968,30.788,25.643,36.726,45.751l8.683,29.4a25.861,25.861,0,0,1-6.52,25.775l-22.978,22.111a28.9,28.9,0,0,1,8.956,21.143v22.11a2.435,2.435,0,0,1-2.332,2.526h8.628a2.526,2.526,0,0,0,2.526-2.526v-22.11a27.874,27.874,0,0,0-9.7-21.143l24.891-22.112A24.509,24.509,0,0,0,318.486,78.807Z" transform="translate(-199.782 -0.001)" fill="#35343f"/>
      <path id="Path_1292" data-name="Path 1292" d="M205.588,220.432,156.1,265.19l-49.49-44.758a3.817,3.817,0,0,1-.92-4.4l.022-.049c1.6-3.547,4.716-10.186,8.31-16.468,1.384-2.425,2.843-4.8,4.315-6.922,2.429-3.506,4.887-6.326,7.111-7.559,13.4-7.441,47.906-7.441,61.305,0,2.223,1.233,4.682,4.052,7.111,7.559,1.472,2.122,2.931,4.5,4.315,6.922,3.594,6.282,6.707,12.921,8.31,16.468l.022.049A3.818,3.818,0,0,1,205.588,220.432Z" transform="translate(-105.349 -119.002)" fill="#35343f"/>
    </g>
    <g id="Group_1105" data-name="Group 1105" transform="translate(71.282 75.458)">
      <path id="Path_1293" data-name="Path 1293" d="M221.16,300.127V267.743H192.8v32.433l-3.585.006a25.378,25.378,0,0,0-7.136,1.037l24.9,22.52,25-22.613a25.368,25.368,0,0,0-7.114-1.005Z" transform="translate(-158.328 -253.009)" fill="#f8cb6f"/>
      <path id="Path_1294" data-name="Path 1294" d="M358.224,241.774c-1.7-3.59-4.012-8.241-6.573-12.716-.991-1.736-2.019-3.443-3.064-5.053h-11.8v19.069h16.63A9.495,9.495,0,0,0,358.224,241.774Z" transform="translate(-260.922 -224.006)" fill="#f8cb6f"/>
      <path id="Path_1295" data-name="Path 1295" d="M118.148,229.058c-2.56,4.475-4.873,9.126-6.573,12.716a9.488,9.488,0,0,0,4.808,1.3h16.63V224.005h-11.8C120.167,225.615,119.139,227.323,118.148,229.058Z" transform="translate(-111.575 -224.005)" fill="#f8cb6f"/>
    </g>
    <path id="Path_1296" data-name="Path 1296" d="M212.312,185.031c-13.4-7.441-47.905-7.441-61.305,0-2.223,1.233-4.682,4.052-7.111,7.559v4.123a37.763,37.763,0,1,0,75.527,0V192.59C216.994,189.083,214.535,186.263,212.312,185.031Z" transform="translate(-61.727 -119.001)" fill="#fff"/>
    <g id="Group_1106" data-name="Group 1106" transform="translate(84.622 60.45)">
      <path id="Path_1297" data-name="Path 1297" d="M217.14,185.031c-13.4-7.441-47.905-7.441-61.305,0a17.865,17.865,0,0,0-4.658,4.288c18.572-3.249,46.062-7.065,70.584,20.9a37.661,37.661,0,0,0,2.491-13.507V192.59C221.822,189.083,219.363,186.263,217.14,185.031Z" transform="translate(-151.177 -179.45)" fill="rgba(0,0,0,0.1)"/>
      <path id="Path_1298" data-name="Path 1298" d="M282.749,195.24c-.242-.134-.492-.265-.748-.395v16a33.836,33.836,0,0,1-31.888,33.778c.111.006.221.013.332.018.145.006.29.013.436.018.4.013.808.022,1.215.022h0c.411,0,.821-.009,1.229-.022l.338-.013q.507-.021,1.01-.055l.234-.015q.6-.044,1.2-.108l.288-.033c.069-.008.138-.018.207-.026.253-.03.506-.061.757-.1l.3-.042c.156-.023.311-.051.466-.076.239-.038.479-.074.717-.117l.155-.03c.19-.035.378-.075.566-.113.156-.031.312-.06.467-.093l.3-.066c.365-.081.728-.166,1.089-.258l.073-.018c.387-.1.771-.206,1.153-.317l.273-.081q.477-.142.949-.3l.211-.068c.066-.022.131-.047.2-.069.309-.105.617-.212.923-.325l.193-.073q.473-.178.94-.369l.243-.1c.368-.153.735-.311,1.1-.475l.008,0c.155-.07.308-.146.461-.219.2-.093.4-.185.595-.282l.236-.117q.489-.245.97-.5l.08-.042q.526-.284,1.041-.585l.192-.114q.439-.259.87-.529l.172-.107q.5-.32,1-.655l.1-.067.1-.071q.39-.269.774-.546l.193-.141,0,0q.953-.7,1.86-1.461l.178-.15q.407-.345.8-.7l.092-.082c.068-.062.134-.126.2-.189.226-.207.452-.415.673-.627l.128-.125c.164-.16.325-.323.487-.486.082-.083.166-.163.247-.247l.146-.149c.186-.193.367-.39.549-.586.09-.1.183-.192.272-.29l.025-.028c.226-.25.446-.5.665-.761.028-.033.057-.064.085-.1l.149-.176,0,0q.761-.906,1.465-1.86l0-.005.124-.17c.116-.159.228-.321.342-.482.09-.128.182-.253.271-.382.029-.042.058-.083.086-.124q.34-.5.665-1.01l.069-.11q.289-.457.564-.924l.1-.177q.6-1.035,1.144-2.111l0-.009.1-.21c.1-.2.2-.411.3-.617.012-.025.024-.05.036-.074.037-.079.074-.158.111-.238q.167-.363.326-.73c.029-.066.058-.132.087-.2q.4-.924.742-1.873l.019-.049.027-.076q.158-.438.306-.881c.027-.079.052-.16.077-.239q.119-.365.232-.734c.029-.094.057-.189.085-.284.056-.188.108-.378.161-.567.014-.05.029-.1.042-.15l.076-.282q.1-.379.193-.762c.019-.078.039-.156.057-.234q.111-.471.211-.947l.011-.053c.01-.046.018-.094.027-.14q.2-.964.344-1.946l0-.027c.007-.046.013-.092.02-.138.019-.132.035-.266.053-.4.023-.169.047-.338.067-.508.009-.072.016-.145.025-.217q.049-.424.088-.852.01-.112.02-.225c.008-.1.014-.2.022-.3.015-.2.031-.391.043-.587,0-.059.008-.118.011-.178.014-.255.024-.51.034-.766,0-.094.01-.187.012-.282,0-.005,0-.01,0-.015q.016-.561.017-1.126V202.8C287.431,199.292,284.972,196.472,282.749,195.24Z" transform="translate(-216.785 -189.659)" fill="rgba(0,0,0,0.1)"/>
    </g>
    <g id="Group_1107" data-name="Group 1107" transform="translate(89.954 66.198)">
      <path id="Path_1299" data-name="Path 1299" d="M251.026,308.932a2.526,2.526,0,0,1-2.526-2.526v-3.368a2.526,2.526,0,1,1,5.053,0v3.368A2.526,2.526,0,0,1,251.026,308.932Z" transform="translate(-221.048 -265.479)" fill="#19303f"/>
      <path id="Path_1300" data-name="Path 1300" d="M225.277,276.771a2.526,2.526,0,0,1-1.365-.4l-7.037-4.518-7.037,4.518a2.525,2.525,0,0,1-2.24.244l-8.946-3.3a2.526,2.526,0,0,1,1.75-4.74l7.765,2.868,7.343-4.714a2.527,2.527,0,0,1,2.73,0l7.343,4.715,7.765-2.868a2.526,2.526,0,0,1,1.75,4.74l-8.946,3.3A2.524,2.524,0,0,1,225.277,276.771Z" transform="translate(-186.896 -242.808)" fill="#19303f"/>
      <path id="Path_1301" data-name="Path 1301" d="M299.367,205.049a2.52,2.52,0,0,1-1.787-.74,9.393,9.393,0,0,0-13.269,0,2.526,2.526,0,0,1-3.573-3.573,14.452,14.452,0,0,1,20.415,0,2.526,2.526,0,0,1-1.786,4.312Z" transform="translate(-241.936 -196.515)" fill="#19303f"/>
      <path id="Path_1302" data-name="Path 1302" d="M186.374,205.049a2.519,2.519,0,0,1-1.786-.74,9.394,9.394,0,0,0-13.27,0,2.526,2.526,0,0,1-3.572-3.573,14.452,14.452,0,0,1,20.415,0,2.526,2.526,0,0,1-1.786,4.312Z" transform="translate(-167.005 -196.515)" fill="#19303f"/>
    </g>
  </g>
</svg>
