<svg xmlns="http://www.w3.org/2000/svg" xmlns:xlink="http://www.w3.org/1999/xlink" width="356.85" height="356.83" viewBox="0 0 356.85 356.83">
  <defs>
    <radialGradient id="DÈgradÈ_sans_nom_81" data-name="DÈgradÈ sans nom 81" cx="177.6" cy="177.49" r="193.04" gradientUnits="userSpaceOnUse">
      <stop offset="0.85" stop-color="#fff"/>
      <stop offset="1"/>
    </radialGradient>
    <mask id="mask" x="-15.44" y="-15.55" width="386.09" height="386.09" maskUnits="userSpaceOnUse">
      <circle cx="177.6" cy="177.49" r="193.04" style="fill: url(#DÈgradÈ_sans_nom_81)"/>
    </mask>
    <radialGradient id="radial-gradient" cx="136.79" cy="51.66" r="146.05" gradientTransform="translate(48.87 73.22) rotate(11.31)" gradientUnits="userSpaceOnUse">
      <stop offset="0" stop-color="#3b97b2"/>
      <stop offset="1" stop-color="#314e63"/>
    </radialGradient>
    <radialGradient id="radial-gradient-2" cx="133" cy="27.41" r="124.14" gradientTransform="translate(48.87 73.22) rotate(11.31)" gradientUnits="userSpaceOnUse">
      <stop offset="0" stop-color="#679fc1"/>
      <stop offset="0.85" stop-color="#32738b"/>
    </radialGradient>
  </defs>
  <title>earth</title>
  <g style="isolation: isolate">
    <g id="Layer_2" data-name="Layer 2">
      <g id="Calque_1" data-name="Calque 1">
        <g style="mask: url(#mask)">
          <g>
            <path d="M352.46,213.75A177.94,177.94,0,1,1,212.88,4.37,177.93,177.93,0,0,1,352.46,213.75Z" style="fill: #314e63"/>
            <path d="M316.09,179.34A146,146,0,1,1,201.52,7.49,146,146,0,0,1,316.09,179.34Z" style="fill: url(#radial-gradient)"/>
            <g style="mix-blend-mode: multiply">
              <path d="M52.65,207.45c8.87,1.21,6.86,4.44,9.68,10.89,2,5.64,8.87,6.85,11.29,11.29,2.82,4.43-2.82,8.87.4,14.11,2.82,3.23,9.27,4.43,12.9,4.43,5.65,0,7.26-3.22,11.7-4,4.83-1.21,10.08,2,14.91,3.63a117.75,117.75,0,0,0,16.13,4c2.42.41,7.66,0,9.27,1.62,2,1.61,1.62,5.64,3.23,8.06,6.45,8.06,20.16,9.27,27,16.93,4.84,5.24,5.65,8.47,12.5,12.1,5.24,3.22,10.08,4.84,15.32,7.26,10.89,4.43,12.1,14.11,7.26,23.78-2.42,5.25-7.26,6.46-10.48,11.29-1.61,2-2,5.65-3.63,7.26-2.42,2.82-5.24,2.82-8.47,4.44-5.64,3.62-10.48,11.29-18.14,10.48-11.69-1.61-16.94-12.1-21-21.37-6.45-15.73-13.71-35.48-30.64-42.33-1.21,9.67,5.24,24.19,8.87,33.46,2,5.24,6,10.48,5.64,16.53-1.2,15.32-14.91-8.87-19.35-11.69-4.84-3.23-12.09-4-16.13-8.07-4-3.63-4-7.66-4.83-12.49-2-10.08-8.07-17.34-6.45-27.82.8-6.46,5.64-9.28-2.83-11.7-6.45-2-10.08,0-13.7-7.25-4.84-8.47-8.07-18.15-15.33-25.41-7.66-8.06-19.75-8.87-28.22-15.72-5.24-4.43-4.84-7.26-6.85-12.9-2-4.84-5.24-8.07-6.45-12.9C5.08,190.92,1.45,176,10.72,178c5.65,1.21,10.48,16.13,12.5,20.56,3.23,6.45,6.05,13.71,11.29,18.55,8.47,8.06,9.27,1.21,14.92-4.84Z" style="fill: #cbcbcb"/>
            </g>
            <path d="M301.11,134.46s-55.53-22.23-117.45,58.83c0,0-80.68,89.22-152.31-28.24,0,0-9.63-96.48,89.42-135.63,0,0,70-38.3,149.53,19.89S301.11,134.46,301.11,134.46Z" style="fill: url(#radial-gradient-2)"/>
            <g style="mix-blend-mode: multiply">
              <path d="M349.44,226.45a.1.1,0,0,1,0,0c-6-6.85-16.94-5.64-25.4-4l-33.47,5.24c0,5.65-9.27,14.11-8.87,19.76s5.24,9.68,6.86,15.32c.8,2.82,0,5.64,2,8.87,1.61,2.82,5.24,4,6.05,7.66s-1.61,12.1-2.82,16.13c-3.63,10.48-20.56,10.08-22.18,22.17-.4,3.23,1.62,4.44,2,7.66a18.87,18.87,0,0,1,.06,3.7A177.44,177.44,0,0,0,349.44,226.45Z" style="fill: #e6e6e6"/>
            </g>
            <g style="mix-blend-mode: multiply">
              <path d="M232.77,10.6a6,6,0,0,0-4.23,4.23c-.91,3.63,1.21,3.63,2.72,6.35,2.12,3.63,2.12,7,5.75,10,3.33,2.72,7.26,3,10.89,5.14,3.62,1.81,7.55,6.35,10.28,9.68,3,3.93,3.32,7.25,2.42,11.79-.61,3-2.42,6.35-1.21,9.37,1.51,3.93,5.44,5.45,6.65,9.68a92.39,92.39,0,0,0,1.81,9.68c1.21,3.32,1.51,10.28,4.24,12.4,3,2.41,7.25.3,10.28.3,5.14.3,4.23,1.51,6.05,5.74,2.11,5.14,5.74,7.86,2.72,12.1-2.12,3-3.63,6-3,9.67.91,4.84,5.14,6,6.35,10.29.91,3.63-1.21,6.65.91,10.28,3,5.44,10.58,9.67,7.86,16-2.72,6.66-8.16,8.47-10.88,15.12-1.52,4.24-.31,7.56-2.12,11.8-2.12,5.44-5.14,8.46-4.23,12.7.3,1.81-.31,3.32.3,5.14s-1.16,12.44-1.82,16.33a59.1,59.1,0,0,0,1.9,24.34c4.4,14.12,6.84,26.13,14,24.54,5.74-1.51,2.27-35.28,4.69-40.11,5.74-12.1,10.58-24.8,17.84-35.69A107.14,107.14,0,0,1,338,179.63c1.81-1.21,3-3,4.84-4.23,2.11-1.51,4.23-1.81,6-3.33,11.8-7.86,0-36.28-3.93-46.57-2.42-7.55-5.74-13.6-10.28-20.56C325,90.73,317.44,75.61,306.86,62c-8.77-11.19-22.68-20.56-34.17-29.33-7.56-6.05-16.93-11.49-25.4-16Z" style="fill: #b3b3b3"/>
            </g>
            <g style="mix-blend-mode: multiply">
              <path d="M56.68,206.71c-2.42,0-11.69.81-14.11-.4-6.45-3.23.41-8.07,1.62-12.91,1.2-5.24-.81-10.48,3.22-14.51,2.42-2.42,9.27-4.84,12.5-3.63,6.45,2,10.89,23,18.14,20.16,4.84-1.61,3.23-8.46,3.63-12.09.81-5.65,3.23-7.26,6-12.1,2-3.23,2.42-5.64,5.24-9.27,3.23-4,4-4.44,4.84-9.68.81-4.84,6.45-7.66,11.69-10.89,2-1.2,5.65-3.22,7.26-4.83,3.22-2.42-1.61-10.08,2.82-12.5,1.21-.41,4.84,2.82,6.45,2.42,2.42-.41,1.21-2.83,3.23-4,2.42-1.62,6.05-4.84,6.85-7.26-4.43-1.61-10.48-1.21-14.92-.41-17.33,2.42-37.09,11.7-51.6,21-11.7,7.66-23.39,20.56-31.45,31.45-6.45,8.87-11.69,21.37-11.69,32.25,0,9.68,14.11,29.44,23.78,17.34.41-.81.81-1.21.81-2Z" style="fill: #cbcbcb"/>
            </g>
            <g style="mix-blend-mode: multiply">
              <path d="M201,26c-.3-.61-1.51-1.21-1.51-2.42-.3-1.21.91-2.12.91-3.63C199.82,2.13,166.85.62,153.85,2.74c-9.37,1.81-18.75,7.86-26,13.91a206,206,0,0,1-22.38,16.63c-6,3.93-16,8.77-19.66,15.12-3.32,6.65-3.93,15.12-3.62,22.37.3,9.68,3.32,16,11.18,21.77,6,4.24,13,7.87,19.36,11.8,3.93,2.42,8.46,3,11.79,6.65l7.86,6.65c5.14-2.72,11.8-2.11,13.91-7.25,3.93-9.38-5.74-3-10-4.54.61-1.81,2.42-1.81,3.93-3.33,2.12-1.81,1.82-3.32,3.94-5.44,3-2.42,6-1.51,9.07-1.81,3.63-.61,8.77-3.63,8.16-8.17-.3-1.81-3.33-2.72-3.63-4.84-.9-2.42.61-3.93-.3-6.65-1.51-3.33-4.23-6-5.75-9.37-1.2-2.72-5.44-8.17-5.44-10.89,0-2.12,1.82-2.72,2.12-4.23.6-2.12,0-3.93.3-5.75.61-2.72,3.93-7.56,6-9.07,4.23-3,4.54-.3,5.74,3.63,1.52,4.84,2.73,6.65,6.35,10,2.73,2.72,3.33,8.16,7.26,9.67,3.63,1.52,7.26-.3,10-2.41,4.84-3.33,4.84-4.24,3.63-9.08-1.21-5.74-1.81-7.86,2.42-12.09,1.51-1.51,2.12-2.72,4.23-3.63,1.51-.91,3.93,0,5.45-1.21C202.54,29.35,201.33,28.74,201,26Zm-85,20.26c0,1.51-3.63,4.53-4.53,5.74a19.09,19.09,0,0,0-3,6.66c-.6,2.11,1.21,4.23-.9,5.74-3.33,2.42-3.33-1.21-4.54-3.32-.91-1.52-3.63-4.84-3.63-6.35.3-3,7.26-7.26,9.68-7.87l2.42-.3C112.73,44.77,116.36,43,116.05,46.28Z" style="fill: #cbcbcb"/>
            </g>
            <path d="M232.41,10.08s-2.15,3.36,2.28,8.74l16.13,11.23s5.65-.59,5.84,4.84a10.85,10.85,0,0,0,4.69,8.25l3.94,2.62,5,3.55,9.56,7.79h2.2v2.72l8.27,8.53v3l-.6,3.46L266.22,61.39l.32,4.14s5.39,6.25,3.5,13.71l5,10.7,4.43,1.6,5.25-3v3l3,1.81,7-4.82s5.2-3.82-2.13,10.08l-.27,3.28,8,1.12s-3.6,5,1.24,14.5l-6.91-.61-1.56,2.66,5.28,13.06,2,14.61,2.42,2.57,9.88-1.41,5.57-15.28s-6-18.22,5.72-15l4.83,9.53,6.25,3.86,9.48-3.86,2-5.83L289.73,48.4Z" style="fill: #4b5e1e"/>
            <path d="M347.51,143.42s-8.6-2.49-7.39,9.4l-14.5-13.09s-5.39.55-7.34,8.64l-6,3.85-4.23,3.71s-3.23,12.08-5.64,19.91l-5,2-2.71,17.59-3.55,14.65s-2.15,6.31,0,10.52l-1.43,14.08-1.62,10.08s3,30.43,14.21,28.82l4.14-41.72Z" style="fill: #4b5e1e"/>
            <path d="M200.54,306.85a24,24,0,0,0-17.69-7.37s-6.38-6.38-19-3.8c0,0,2.34-14.86-3.93-18.67l-11.78-1.72L134.85,265l-1.23-9.82s-14.62-3.56-17.68,2.2L106.12,249l-3.07,5.77-.86-8.47-13.14,8.22-1.6,4.79-3.32-2.58L77.26,256l-9.21-11.42.49-12-12.4-5,1.47-20.13s-8.34-3-10.68,5.52c0,0-30.69.24-2.82-40.15l10.07.74s7.24-7.5,16.21,5.15l3.19,12.77s3.68,7.12,6.13,1.23l-2.08-18.3s17.56-17.56,17.43-29.71c0,0,7.49-5.52,8.59-11.05l7.86-1,2.95-8.35,10.93-6.76-.37,5,16.46-8.84.24-4.42-5.65,2.7-3.93-2.7s-2.08-8.72,6.88-8.84c0,0-15.47-2.46-16.7,3.68,0,0-9.21-1.84,6.14-8.34,0,0,11.42.36,19.89-3.69l7,.12-3.19-12.77s-8.84-13.26-8.23-19.52c0,0-3.07-7-9.09.74l-1.72-7.37s-10.19-12.9-14.36-4.79c0,0-5,6-4.66,13.75l-3.57,8.23a20,20,0,0,0-7,12.64S98.13,91,100,78.59c0,0-.49-10.31-7.61-16.21,0,0-8.23-9.94,8.11-18.17,0,0,5.77-6.5,9.45-5.77,0,0,10.43,5.28,11-4.17l.86-4.3,4.66-1,6.26-9L138,22.36l-3.44,10.8-5.4,1.47s7.85,15,14.61,16.34l-2-6.14,9.95-11.42-4.55-9.21,2.95-5.15L147,9.46,156.82,5l6.39,16,1.35,2.82s-4.42,25.3,13.26,32.66c0,0,7,.13,4.79-14.36l6.26-9,6.87-8.84-1.59-4.79-5.77-9.45L175.78,0A178.91,178.91,0,0,0,2.6,143.78c-.5,2.54-.94,5.08-1.34,7.61-.76,6.54-2.55,29.06,7.36,39.18,0,0,2.21,11.3,9.58,16a38.1,38.1,0,0,0,23.33,20.63l12.27,12,22,24.18,5.78-.12s10.8,9.82,3.8,19.28c0,0-6,26.89,25.42,45.3,0,0,10.07,7.12,12.77,19.16,0,0,.41,1,1.1,2.58a183.38,183.38,0,0,0,18.26,4.65q8.28,1.65,16.53,2.51l9.54-7s12-2.7,21.12-22.59C190.1,327.11,208.76,313.6,200.54,306.85Z" style="fill: #9dc43e"/>
            <path d="M309.59,262.38l-2.13,14.32S298.09,301.77,293,306s-15.4.87-17.83,21.91c0,0,23.88-17.06,34.16-35.5s10.19-32.75,10.19-32.75Z" style="fill: #4b5e1e"/>
            <g style="mix-blend-mode: multiply">
              <path d="M232.77,10.6a6,6,0,0,0-4.23,4.23c-.91,3.63,1.21,3.63,2.72,6.35,2.12,3.63,2.12,7,5.75,10,3.33,2.72,7.26,3,10.89,5.14,3.62,1.81,7.55,6.35,10.28,9.68,3,3.93,3.32,7.25,2.42,11.79-.61,3-2.42,6.35-1.21,9.37,1.51,3.93,5.44,5.45,6.65,9.68a92.39,92.39,0,0,0,1.81,9.68c1.21,3.32,1.51,10.28,4.24,12.4,3,2.41,7.25.3,10.28.3,5.14.3,4.23,1.51,6.05,5.74,2.11,5.14,5.74,7.86,2.72,12.1-2.12,3-3.63,6-3,9.67.91,4.84,5.14,6,6.35,10.29.91,3.63-1.21,6.65.91,10.28,3,5.44,10.58,9.67,7.86,16-2.72,6.66-8.16,8.47-10.88,15.12-1.52,4.24-.31,7.56-2.12,11.8-2.12,5.44-5.14,8.46-4.23,12.7.3,1.81-.31,3.32.3,5.14s-1.16,12.44-1.82,16.33a59.1,59.1,0,0,0,1.9,24.34c4.4,14.12,6.84,26.13,14,24.54,5.74-1.51,2.27-35.28,4.69-40.11,5.74-12.1,10.58-24.8,17.84-35.69A107.14,107.14,0,0,1,338,179.63c1.81-1.21,3-3,4.84-4.23,2.11-1.51,4.23-1.81,6-3.33,11.8-7.86,0-36.28-3.93-46.57-2.42-7.55-5.74-13.6-10.28-20.56C325,90.73,317.44,75.61,306.86,62c-8.77-11.19-22.68-20.56-34.17-29.33-7.56-6.05-16.93-11.49-25.4-16Z" style="fill: #e6e6e6"/>
            </g>
            <path d="M289.18,310.53s-10.37,10-14.95,19.05a179.11,179.11,0,0,0,81.62-169.83,126,126,0,0,0-8.34-16.33s-8.72-1.1-3.69,8.84c0,0-7.73,3.57-10.55-14.24,0,0-9.22-1.84-11.92,8.47l-9.45,5.77S304,175.59,307,180L304,175.59s-14.48,34.14-10.06,44l-3.32,26.15s2,28.48,11.66,27.87L318,262l-4.42,12.52S301.22,304.64,289.18,310.53Z" style="fill: #9dc43e"/>
            <path d="M325.41,116.65l7.24,11.67L343.33,126l3.89-5A178.91,178.91,0,0,0,233.31,8.78c-1.76,1.56-1.69,4.26,2.7,8.91l7.74,2.82,8.6,8.11,4.17,1.47,8,14.37,7.25,2.08,8.11,10.56,3.8-3.06.24,5.15,9.21,11.43-.13,7L268.43,56.74l-2.21,4.65s7.62,9.83,6.51,15.36L278,88.66l7.24-1.11L286.48,91l7.86-4.18,3-5.15s2.82,11.42-4.67,17l7.74,2.82s-.24,10.8,4.29,13.63l-9.94,1.84,7.12,21.85,1.85,6.76,8.59,1.72,6-14.12S313.13,107.82,325.41,116.65Z" style="fill: #9dc43e"/>
            <path d="M22,239.92c0,1-36.61-98.63,25.8-171.16,62.36-70.57,141.75-58,170.31-52.67,0,.91-103.53-13-162.82,57C-4.1,144.93,22,240.72,22,239.92Z" style="fill: #999;mix-blend-mode: overlay"/>
            <path d="M314.43,274.09c0,1.1,73-94.68,1.54-196.51C316,77,357.47,159.74,314.43,274.09Z" style="fill: #333;mix-blend-mode: screen"/>
            <g style="opacity: 0.5;mix-blend-mode: overlay">
              <path d="M306.58,113S291,100.4,280,112.29s-16.79,38.84,3.59,51.23S290,204,302.8,204.67C315.59,205.51,330.94,144,306.58,113Z" style="fill: #b3b3b3"/>
            </g>
            <path d="M46.52,160.27c.72.22-4.36-21.11,4.38-47,7.74-25.45,29.27-54.76,60.16-59.76,60.37-6.63,10.64,15.27-18.41,38.64C60.41,115.7,45.54,160.65,46.52,160.27Z" style="fill: #ccc;opacity: 0.5;mix-blend-mode: overlay"/>
            <path d="M127.44,116.6l-2.42-.81c-2.22,2.42-12.09,5.6-12.09,5.6l-2.62,1.16v3.27l-1.61,5.7-5.65-2-3.43,2c-2.42,11.69-7,10.88-7,10.88l-2.1,2.82-2.22,8.67L74.62,171.23l-1.41,2.82,6,14-1.56-13.7s17.56-17.56,17.43-29.71c0,0,7.49-5.52,8.59-11.05l7.86-1,2.95-8.35,10.93-6.76-.37,5,16.46-8.84-11.42,2.89Z" style="fill: #dfecbf"/>
            <g>
              <path d="M92.65,143.91c2.3,12.7-18,29.34-18,29.34l4.57,14.81-1.56-13.7s17.56-17.56,17.43-29.71c0,0,7.49-5.52,8.59-11.05l7.86-1-9.88-1.1C100.21,143,92.65,143.91,92.65,143.91Z" style="fill: #4b5e1e"/>
              <polygon points="125.39 117.51 125.02 122.55 141.47 113.71 127.24 119.12 125.39 117.51" style="fill: #4b5e1e"/>
              <polygon points="111.51 132.62 114.46 124.27 125.39 117.51 111.51 123.05 111.51 132.62" style="fill: #4b5e1e"/>
            </g>
            <path d="M44.11,172.77l10.07.74s7.24-7.5,16.21,5.15c0,0-6.65-15.09-16.93-6.62l-10.28-1.21-5.45,7.54s-19.36,32,7.44,34.43C39.07,212.09,20.4,207.13,44.11,172.77Z" style="fill: #4b5e1e"/>
            <path d="M70.39,178.66S64.14,164.58,53.46,172l-10.28-1.21s-9.86,13.83-12.09,26.06c0,0-2.07,13.66,12.57,15.67,0,0-8.37,2-12.69-7.88s0-14.5,0-14.5l9.59-19.35,5.14-2.27,6.95,1.86s2.62-4.76,6.65-3.08A50.85,50.85,0,0,1,66,170.63S69.51,175.17,70.39,178.66Z" style="fill: #dfecbf"/>
            <g>
              <path d="M139,100.45s-1.66-.26-3.92-.4h0l-1.86,1.08-2.38,2.72,1.27,5.44S130.06,100.57,139,100.45Z" style="fill: #4b5e1e"/>
              <path d="M145.69,89.94l-6.09,3.17L131,92.66s-4.23,1.81-8,3.93-3.42,5.28-3.42,5.3c.13-1.3,2.14-3.26,8.87-6.1,0,0,11.42.36,19.89-3.69l7,.12-5.58-2.28Z" style="fill: #4b5e1e"/>
            </g>
            <polygon points="132.14 109.29 129.51 104.67 130.87 101.89 135.1 100.05 133.25 101.89 131.06 104.67 132.14 109.29" style="fill: #dfecbf"/>
            <path d="M155.35,92.22l-5.58-2.28h-4.08l-6.09,3.17L131,92.66s-10.62,5.3-11.43,9.23v-3L125,94.47l7.29-2.72s4.53.15,7.29-1.21,9-2,9-2S150,87.86,155.35,92.22Z" style="fill: #dfecbf"/>
            <g style="mix-blend-mode: overlay">
              <path d="M169.58,22.05c2.09,3.47,2.09,13.34,8.87,10.08,9.67-4,8.87-12.09,4-19.35-3.72-7.27-9.61-8.86-14.94-12.49Q164,.5,160.41.84C168.14,6.1,164.14,16.61,169.58,22.05Z" style="fill: #b3b3b3"/>
            </g>
            <g style="mix-blend-mode: overlay">
              <path d="M20,195.42c5.65-5.64,4-16.13,8.87-21.77,5.65-8.06,15.33-14.52,25-14.52,16.13,0,18.55,8.07,25-9.67,4-11.29,9.68-21,20.16-28.22,3.22-2.42,8.06-1.62,10.48-4.84,5.65-8.07-2.42-6.45-.8-14.52,2.41-12.9,20.15-10.48,25-19.35,9.68-17.74-13.71-10.48-20.16-3.23-12.09,12.91-13.7,19.36-23.38,1.62C76.44,54.31,84.5,42.21,108.7,26.08c8.86-6.45,18.54-9.67,26.61-15.32,3-2.09,5.53-4.95,8.12-7.41A178.9,178.9,0,0,0,4,137.61a82.7,82.7,0,0,0,.71,11c.81,8.06,4.84,14.52,6.45,22.58C13.54,180.1,10.32,189,20,195.42Z" style="fill: #b3b3b3"/>
            </g>
            <g>
              <path d="M138,22.36,132.75,20l-6.26,9-4.66,1-.86,4.3c-.62,9.45-11,4.17-11,4.17-3.68-.73-9.45,5.77-9.45,5.77-16.34,8.23-8.11,18.17-8.11,18.17,7.12,5.9,7.61,16.21,7.61,16.21-1.84,12.4,3.56,4.54,3.56,4.54s-3.12,2-1.9-2.41,1.64-7.67-.28-12.71a16.3,16.3,0,0,0-6.77-7.65L92.65,53.9l9-8.26s3-7.66,8.48-5.65,10.28,2,12.29-2.62,0-6,0-6h4.44l2.67-2.39,3.74-7.69,4.21.86L129.2,34.63l5.4-1.47Z" style="fill: #4b5e1e"/>
              <path d="M156.82,5,147,9.46l3.19,9.59-2.95,5.15,4.55,9.21-8.74,10.21.76,7.35c-6.76-1.35-14.61-16.34-14.61-16.34s.46,15.64,15.78,17.66V45.84l.81-3,7.66-8.07.81-3.83L149,23.66l4.44-4.43L148.81,10l8.52-3.65Z" style="fill: #4b5e1e"/>
            </g>
            <path d="M103.53,83.13s-4.06,5.76-3.94-.44c0,0,2-4.39-1.23-13.77s-6.43-4-6.8-10.28S92.7,50,92.7,50l7.77-5.81s5.43-5.71,9.45-5.77c0,0,4.38,2.81,8.43.87S121.83,30,121.83,30l4.66-1,6.26-9L138,22.36,137.46,20l-3.42-3-3.17,2-3.78,7.27s-2,2.85-4.84,1.64l-2.67,2.14v5.58S115.45,41,108.8,37.17l-7.17,2.95L90.29,50v9.23l2.36,4.83a4.75,4.75,0,0,1,3.14,4.39l3.18,8-.76,5.75.94,4.92,4-1.56Z" style="fill: #dfecbf"/>
            <path d="M76.67,154.8s13.56-27.75,25-34.87C101.63,119.93,84.16,126,76.67,154.8Z" style="fill: #dfecbf"/>
            <path d="M24.52,185.45s3.33-10.44,9.58-16S46.76,159,60.69,159.63c0,0-9.45-4.19-23.76,4.28C36.93,163.91,24.61,173.13,24.52,185.45Z" style="fill: #dfecbf"/>
            <path d="M111.51,96A72.53,72.53,0,0,1,125,89.94c7.46-2.44,12.78-7.48,12.44-15.14s-15.71-3.67-19,.69c0,0,12.1-6.53,16.49-1.89s-5.74,12-5.74,12S116.75,89.85,111.51,96Z" style="fill: #dfecbf"/>
            <polygon points="134.84 60.67 131.58 64.66 124.5 64.66 130.87 62.66 132.31 59.28 132.31 53.84 127.1 47.59 133.25 52.48 134.84 60.67" style="fill: #4b5e1e"/>
            <path d="M124.5,64.66l6.37-2,1.44-3.38V53.84l-5.21-6.25,3.77,5.22a19.2,19.2,0,0,1-1.2,5.66C128.65,60.69,131,60.16,124.5,64.66Z" style="fill: #dfecbf"/>
            <path d="M138,22.36l-3.44,10.8-5.4,1.47S136.59,49.1,143.81,51l-.55-7.77,8.53-9.79-4.55-9.21,2.95-5.15L147,9.46,156.82,5l3.83,9.57-.24-6.94-2.33-4.32-9.67,2.91-3.49,2.52s3.49,6,2.48,9.18-2,5.7-1.21,9.2a21.07,21.07,0,0,0,2.42,6l-3.69,6.15-3.44,2.22,1.25,6.05s-9.09-6.12-10.42-10.89,5.09.4,5.15-3.53S138,22.36,138,22.36Z" style="fill: #dfecbf"/>
            <path d="M180.46,43.15l1.21,5.65-2.62,5-3.06-1L173.5,51c-8-5.49-8.94-27.14-8.94-27.14s-4.42,25.3,13.26,32.66c0,0,7,.13,4.79-14.36l6.26-9,6.87-8.84L182.68,38.83Z" style="fill: #4b5e1e"/>
            <path d="M164.56,23.83s.46,23.56,11.43,29l3.06,1,2.62-5-1.21-5.65,2.22-4.32,13.06-14.51-1.59-4.79-5.77-9.45,4.33,9a8.75,8.75,0,0,1,0,4.77c-.76,2.49-6.18,8.69-6.18,8.69l-5.46,4.23L179,44.31s1.86,4.25.3,6.66-8.16-5.3-8.16-5.3l-4.54-12.5Z" style="fill: #dfecbf"/>
            <path d="M170.76,25.12s0,7,4.26,8.05,14.26-3,10.38-14.35c0,0,.36,8.56-4.18,11S172.86,34.05,170.76,25.12Z" style="fill: #dfecbf"/>
            <path d="M93.55,86.63S80.67,64.17,84.76,52.81s16.45-23,27.25-29c0,0-19.78,8.69-28.05,25.17S93.55,86.63,93.55,86.63Z" style="fill: #dfecbf"/>
            <g>
              <path d="M200.54,306.85a24,24,0,0,0-17.69-7.37s-6.07-6-18.06-4l6.4,3.25,10.89,2.83,12.09,3s12.09,3.55,5.54,13.26C202.59,314,204.13,309.8,200.54,306.85Z" style="fill: #dfecbf"/>
              <path d="M160.5,282.85l3.69,4.6s-2.32,1.69-.28,7.62h0c.35-2.83,1.49-14.71-4-18.06l-11.78-1.72L134.85,265l-1.23-9.82s-14.62-3.56-17.68,2.2L106.12,249l-3.07,5.77-.86-8.47-13.14,8.22-1.6,4.79-3.32-2.58L77.26,256l-9.21-11.42.49-12-12.4-5,1.47-20.13-4,2.87-1.81,3.63v7.86l2.88,7.46s7.6,1.57,8.81,4.52,0,7.18,0,7.18l4,8,7.11,6.9,6.66,2.95,3.22,3.68h5.65l4.43-2.82-1.51-2,7.16-6-1.82,4.26,3.22,2.59,7.87,1.82-1-3.43s4,3.43,8.07,3.23a27.41,27.41,0,0,0,8.46-2.22l5.25,1.41v6.25s3.14,7.46,9.33,9.68,14.45,5,14.45,5Z" style="fill: #dfecbf"/>
            </g>
            <g>
              <path d="M182.85,299.48s-5.65-5.64-16.85-4.17l4.79,1.46,11.29,4.83s7.51-2.18,17.63,4.42A23.89,23.89,0,0,0,182.85,299.48Z" style="fill: #4b5e1e"/>
              <path d="M77.14,255.86l-9.09-11.27.49-12-12.4-5,1.47-20.13-2.34,3.48-1.61,8.67,2,8.87s8.7,3.78,9.91,5.32,1.21,6.18,1.21,6.18l-.8,2.32.8,4.12,10.29,9.48Z" style="fill: #4b5e1e"/>
              <path d="M164.23,290.9c.15-4.7-.39-11.49-4.34-13.89l-11.78-1.72L134.85,265l-1.23-9.82s-14.62-3.56-17.68,2.2L106.12,249l-3.07,5.77-.86-8.47-13.14,8.22-1.6,4.79-3.32-2.58-6.32-.68,5.69,1.78,1.59,3.32,6.67-1.1-1-3.83,10.88-8.07v7.67l4.85,2.41-.81-3,.81-3.43s5.32,6.05,8.21,6.45a35.37,35.37,0,0,0,4.49.41l5.24-2.82s6.65.5,8.27,2.61,0,5.45,0,5.45l.71,2.22,4.93,6.25,7.46,3.42,5.24,2.42,9.27.81A22.8,22.8,0,0,1,164.23,290.9Z" style="fill: #4b5e1e"/>
            </g>
            <g style="mix-blend-mode: overlay">
              <path d="M134.1,280c-6-1.62-6-8.07-10.49-11.29-4-2.83-9.27-1.62-13.71-2-5.64-.4-9.67-2.42-12.9,2.42-1.21,2.42-1.61,8.47-2.42,11.69-3.22,10.08-3.63,16.53,3.63,25,3.63,4,7.26,10.48,11.69,13.3,5.25,2.83,12.5,1.62,16.94,5.25,8.87,7.25-2,20.56,10.88,26.2,8.87,3.63,19.36,1.21,27.82-2.42,5.25-2.41,8.07-4.83,9.28-10.08,1.21-5.64,0-8.06,5.24-12.09,4-3.23,11.29-2.82,12.1-8.87,1.2-5.64-4-7.66-8.47-8.87-8.87-2-21.77,0-27.82-9.27-2.42-4,0-9.68-3.63-13.31-3.23-3.22-9.27-3.22-13.71-4.43Z" style="fill: #b3b3b3"/>
            </g>
            <path d="M232.23,10.44s-.17,5.81,3.78,7.25l7.74,2.82,8.6,8.11,4.17,1.47,8,14.37,7.25,2.08,8.11,10.56,3.8-3.06.24,5.15,9.21,11.43V68.33l-7.57-10.56-1.06-3.93h-4.23s-4.69-2.87-5.14-6.35-5.9-3.18-5.9-3.18-3,0-7.4-7.86l-4.39-7.86-3.18.08-2.41-2.6-4.69-5.49s-3-1.85-5.14-1.76S233.35,15.43,232.23,10.44Z" style="fill: #dfecbf"/>
            <path d="M268.43,56.74l-2.21,4.65s7.46,11.06,6.51,15.36L278,88.66l7.24-1.11L286.48,91l7.86-4.18,3-5.15a18.81,18.81,0,0,1-4.67,17l7.74,2.82-4.54-4.05a19,19,0,0,0,1.52-16.63L294,85.44l-5.59,3.09-2-2.18L283.29,86l-3.19.76a21,21,0,0,1-5.44-9.22C272.84,71.53,268.43,56.74,268.43,56.74Z" style="fill: #dfecbf"/>
            <g style="mix-blend-mode: overlay">
              <path d="M212.88,4.37c-4.06-.81-8.1-1.46-12.14-2,2.93,6.08,8.35,13.86,8.35,19.61,0,12.9-6.45,14.51-12.1,24.19-3.22,4.84-1.61,10.48-5.64,15.32C185.7,68,182.48,65.53,176,68c-18.55,8.06-.81,12.9-8.07,26.61-2.42,4.84-8.87,8.06-11.29,13.71-3.22,6.45-2.41,11.29-8.87,16.93-8.87,7.26-16.12,7.26-23.38,16.94-8.06,9.67-18.55,19.35-25.8,29.83-5.65,8.87-7.26,20.16-14.52,27.42-4,4-12.09,0-12.09,10.48,0,1.61,7.25,12.9,8.87,15.32,8.06,15.32,14.51,9.68,31.44,13.71,8.07,1.61,19.36,4,26.61,7.26,12.1,4,17.74,14.51,28.23,21.77,18.54,12.1,53.22,24.19,41.93,52.41-5.65,12.1-17.74,19.36,0,21.78,9.68.8,19.35-1.62,28.22-4,20.16-4,46.77-23.38,46.77-46.76,0-16.94-8.87-33.87-9.68-51.61-.8-15.32-3.22-35.48,3.23-49.19,3.22-9.68,12.09-16.13,13.71-25.8,1.61-11.29-4.84-16.94-7.26-27.42-2.42-6.45-.81-15.32-4-21.77-4-5.65-11.29-8.07-15.32-13.71-6.45-9.68-8.07-26.61-12.1-37.9-5.64-15.32-17.74-21-25-33.87-3.78-7.1-3.12-15-2.75-22.84C220.94,6.14,216.94,5.18,212.88,4.37Z" style="fill: #999"/>
            </g>
            <path d="M300.36,101.43s-.78,11.19,4.29,13.63l-9.94,1.84,9,28.61,8.59,1.72,6-14.12-6,8.9s-1.73,4.76-5.8,1.54-8.07-20.16-8.07-20.16v-5.26l5.61-.49,3.46-3.45s-4.67-2.06-5.07-7-.32-6.19-2.07-7.79a9.85,9.85,0,0,0-4.54-2Z" style="fill: #dfecbf"/>
            <path d="M317.48,127.66s-2.75-16.93,7.93-11l7.24,11.67L343.33,126l2.86-3.68a30.16,30.16,0,0,1-5.86,2.9c-2.22.61-6.16,2-8.65-1.61s-6.27-8.19-6.27-8.19S314.72,108.14,317.48,127.66Z" style="fill: #dfecbf"/>
            <g style="mix-blend-mode: overlay">
              <path d="M346.28,118.35a179,179,0,0,0-103.09-106c.92,2.78,6.51,5.74,8.43,7.66,4.24,4,9.68,5.65,13.91,10.08a39.37,39.37,0,0,0,7.26,6.86c3.23,2.21,7.26,3.42,9.48,6.65,3.62,4.84,5.84,9.47,10.08,13.91,4,3.83,8.46,7.25,8.26,13.1-.2,3.43-.6,5.24.61,8.67a24.72,24.72,0,0,1,1.41,7.66c0,5,.2,8.67,1.81,13.31,1,2.82,1.61,4.83,3.63,7.25,2,2.62,3.43,4.44,2.82,8.07-1,5.44-8.06,5.24-7.26,12.09.61,6.25,6.86,11.29,10.69,4,2-4-.6-8.66-.4-12.7.2-3.83,3-12.09,8.06-10.48,5.24,1.61,7.26,9.07,12.7,11.09C339.07,121.28,342.19,117.4,346.28,118.35Z" style="fill: #b3b3b3"/>
            </g>
            <path d="M315.54,112.82s2.74-4.14,5.53-3.8,7.94,8.53,11.23,9.18c0,0-2.61-3.28-4.27-5.7S319.08,103.32,315.54,112.82Z" style="fill: #dfecbf"/>
            <path d="M308.07,107.46s-4.53-8.41-4.69-16.88-3.42-15.37-2.77-20c0,0-2.23,3.2-.08,10C302.14,85.77,300.51,99.25,308.07,107.46Z" style="fill: #dfecbf"/>
            <path d="M256.88,23.83S266,30,269.06,34.49s11.08,4.82,16.73,14.2c0,0,.51-2.86-6.14-8.53s-5.6-1.89-12.55-9.45A43.92,43.92,0,0,0,256.88,23.83Z" style="fill: #dfecbf"/>
            <g style="mix-blend-mode: overlay">
              <path d="M284.63,73.49a18.54,18.54,0,0,1-5.29-3.78c-1-1-2.72-4.08-4.38-4.38-3.93-.61.76,7.41,1.36,9.22,1.81,4.54,3.48,6.81,8.16,8.47,2.27.76,10.14,4.38,7.41-2-.91-2.26-3.78-4.83-5.44-6.5Z" style="fill: #dfecbf"/>
            </g>
            <path d="M155.35,92.22l-3.19-12.77S143.08,64,143.93,59.93L143.08,64l4.52,13.57S151,77.39,155.35,92.22Z" style="fill: #dfecbf"/>
            <path d="M353.08,153.65l-5.57-10.23s-10-1.29-3.69,8.84c0,0-7,2.85-10.55-14.24,0,0-8.92-2.44-11.92,8.47l-9.45,5.77s-7.43,21.52-5.4,27L304,175.59s-14.93,34.59-10.06,44l-3.32,26.15s1.27,28.07,11.66,27.87c0,0-12.39-12.09-9.37-30.23l1.8-20.37,2-6.65a35.75,35.75,0,0,1,1.65-20.9c4.4-11.15,8.07-14,8.07-14l2.38-2.59,1.61-17.37s2.55-7.87,7.32-10.79,8.61-9.77,8.61-9.77l5.83-1.2S334.88,156.05,345,153l-.2-4s-2.19-7.08,1.8-3.53Z" style="fill: #dfecbf"/>
            <path d="M291.6,309.17l7.77-3.15s8.09-12.69,12.93-21.16,12-26,12-26l-6.5,3.8h0l-4.19,11.87s-12.4,30.09-24.44,36c0,0-10.37,10-14.95,19.05l17.37-18.1Z" style="fill: #dfecbf"/>
            <g style="mix-blend-mode: overlay">
              <path d="M356.31,164.91c-10.65-6.66-24.18-13.71-31.31-8.26-9.67,7.86,0,32-5.44,43.54-7.26,16.33-20,23-21.17,42.34,0,6.65-.6,13.91,6.66,15.72,6,2.42,19.35-10.88,24.19-2.41,1.81,3-7.86,22.37-9.07,26.61a77.55,77.55,0,0,1-6.86,13.35,179.21,179.21,0,0,0,43-130.89Z" style="fill: #b3b3b3"/>
            </g>
            <path d="M321.05,182.34s-3.35-21.69,2.87-26.41,18.5-.84,25.52,4.93c0,0-15.08-8.3-21.83-3.6S320.77,176.26,321.05,182.34Z" style="fill: #dfecbf"/>
            <path d="M320.52,197.49s-6.1,12.38-12.45,18.13-18.36,27.57-7.22,40.24c0,0-8.81-12.08,3-29.19S314.52,214.73,320.52,197.49Z" style="fill: #dfecbf"/>
            <g style="mix-blend-mode: overlay">
              <path d="M237,61.18c-5.35-4-11.53-6.35-18.16-4.41-5.82,1.71-10.28,6.58-13.65,11.38-4.84,6.89-7.95,15.08-12,22.43-4.63,8.28-9.62,16.36-14.47,24.51-11.44,19.2-34.37,27.61-52,39.88-8.1,5.63-15.94,12.36-20.37,21.36-5,10.16-4,22.07,1.69,31.73,6.8,11.6,19.68,19.81,32.22,23.9,9,2.93,18,4.54,24.69,11.83,5.23,5.73,9,12.09,15.35,16.82,6.6,4.94,14.29,8.24,21.46,12.21s12.84,10.84,18.06,17.11c4.25,5.1,8.28,9.39,14.44,12.14a34.33,34.33,0,0,0,17.22,2.67c10-.95,21.33-7.65,22.94-18.32,1.56-10.37-4-21.41-8.56-30.36-5.21-10.31-11.85-20-16.33-30.65a47.06,47.06,0,0,1-3.94-20.51c.36-6.92,3.39-13.22,7.44-18.71,4.52-6.12,10.48-10.87,14.81-17.17a61.43,61.43,0,0,0,9.14-21.21c1.54-6.86,1.79-14.26-.45-21-2-6.09-6-11.37-10-16.35-3.49-4.4-7.17-8.65-10.37-13.29a46.63,46.63,0,0,1-6.9-15.81c-1.12-4.67-2.13-9.38-5.33-13.13-1.16-1.36-2.69-2.31-3.88-3.67l-2.9-3.31c-.51-.58-1.36.27-.85.86l3.57,4.08a11.9,11.9,0,0,0,2,1.76,13.62,13.62,0,0,1,3.65,5c1.53,3.23,2.1,6.92,2.95,10.36a42.32,42.32,0,0,0,3.6,9.46c6.52,12.54,18.92,21.42,23.48,35.08,2.59,7.73,1.26,16.62-1,24.25a60.52,60.52,0,0,1-12.22,22c-4.64,5.39-9.85,9.89-13.49,16.12a33.77,33.77,0,0,0-4.57,16.95c-.08,11.79,5.57,22.37,11.16,32.36,6.07,10.84,12.69,21.71,16.29,33.69,1.49,5,2.35,10.36.94,15.43-1.7,6.09-7.79,10.55-13.35,12.87-12.65,5.27-27.52.76-36.13-9.46C218,286,213,279.78,206.68,274.79s-14-7.87-20.89-12a51.17,51.17,0,0,1-9.88-7.5c-2.91-2.87-5.24-6.29-7.75-9.5a40.45,40.45,0,0,0-7.35-7.44c-3.38-2.56-8-3.92-12-5.15-7.77-2.39-15.12-4.69-22.14-8.91a52.87,52.87,0,0,1-16.71-15.45,32.43,32.43,0,0,1-.93-35c5.56-9.28,14.94-15.86,23.86-21.6,9.47-6.09,19.44-11.42,28.68-17.89A78.86,78.86,0,0,0,173,124.87c4.27-4.42,7.12-9.79,10.26-15,4.88-8.13,9.78-16.27,14.24-24.65,3.85-7.21,6.8-14.83,12.38-20.94a21.18,21.18,0,0,1,11.5-6.85c5.49-1.07,10.81,1.62,15.06,4.81C237,62.69,237.63,61.64,237,61.18Z" style="fill: #999"/>
            </g>
            <g style="mix-blend-mode: overlay">
              <path d="M261.73,315.61a15.7,15.7,0,0,0-8.19-.48c-3.64.53-7.3,1.13-10.91,1.84a51.14,51.14,0,0,0-18.08,7.19c-5.83,3.77-10.56,8.93-14.91,14.27-5.11,6.28-11.87,9.91-18,14.92a39.72,39.72,0,0,0-3.42,3.19l1.91-.12c5.09-4.83,11.45-8.1,16.56-13,5.57-5.31,9.76-11.67,15.93-16.42a48.54,48.54,0,0,1,18.64-8.52c3.31-.78,6.69-1.21,10-1.8,4-.72,8.95-1.69,12,1.64,4.69,5.06-2.49,13.42-5.36,17.55a27.26,27.26,0,0,0-1.67,2.75l1.65-.81c2.32-3.62,5.32-6.88,6.94-10.91S266.4,317.5,261.73,315.61Z" style="fill: #999"/>
              <path d="M6.45,226.3a54.82,54.82,0,0,0,8,4.95c4.07,2,8.4,3.45,12.48,5.46,7.51,3.71,13.61,10.13,18.85,16.52,2.42,2.94,4.32,6.24,6.66,9.23,2.71,3.46,5.65,6.73,8.47,10.11A53.46,53.46,0,0,1,68,282.94a94,94,0,0,1,4,10.38c2.37,6.7,4.44,13.5,6.59,20.27,1.75,5.53,3.57,11.07,5.59,16.53l1.62,1c-3.15-8.31-5.74-16.87-8.41-25.31-2.08-6.57-4.21-13.13-6.74-19.55-2.81-7.11-7.34-12.73-12.29-18.49-5.1-5.94-9.21-12.58-14.38-18.48S32.8,238.12,25.63,234.77c-3.81-1.79-7.8-3.16-11.58-5A51.82,51.82,0,0,1,6,224.46C6.11,225.07,6.28,225.69,6.45,226.3Z" style="fill: #999"/>
            </g>
            <g style="mix-blend-mode: overlay">
              <path d="M234.29,88.31c-16.94-13.3-32.06,15.12-36.9,25.4-7.86,15.73-23,25.4-36.89,34.47-13.3,9.08-26,17.54-26.61,35.08-.6,18.75,10.29,33.26,27.82,36.89C169,222,178.65,224.39,184.09,231c4.84,6.65,4.23,15.72,8.47,22.38,9.67,16.93,32.05,17.53,46.57,29,4.83,3.62,11.49,15.72,19.35,9.07,4.23-3,3-13.91,1.81-18.15-5.44-18.14-26-21.77-28.42-41.73-1.21-10.28-3.63-27.21-1.82-36.28,3.63-17.54,24.19-20.57,29-36.29a46.6,46.6,0,0,0-3-32.66c-6.65-10.88-9.07-27.82-18.75-35.68Z" style="fill: #666"/>
              <path d="M234.54,87.88c-16.29-12.41-30.49,11.24-36.6,23.55-5.76,11.63-14.49,20.22-24.94,27.76-9.61,6.92-20.27,12.61-28.85,20.87-8.24,7.92-11.69,18.19-10.51,29.51a35.46,35.46,0,0,0,14.17,25.13c9.32,6.83,21.61,6.27,31.26,12.52,6.38,4.13,7.9,10.89,9.67,17.8a32.58,32.58,0,0,0,7.82,14.56c7.38,7.87,18.34,11.18,28,15.29a63.71,63.71,0,0,1,14.55,8.19c3.53,2.75,6,6.64,9.67,9.21,3.57,2.48,7.12,1.93,10.4-.67,3.13-2.48,2.89-8.23,2.68-11.72-.6-9.6-5.75-16.88-12.53-23.32-7.61-7.23-15.48-13.86-16.95-24.92-.79-5.92-1.47-11.87-2-17.83s-.92-11.95.05-17.79c1.74-10.52,10.93-16.46,18.53-22.74a35.57,35.57,0,0,0,9-10.19c2.82-5.16,3.35-11.66,3.27-17.43a46.71,46.71,0,0,0-4-18c-1.12-2.54-2.63-4.91-3.77-7.45-1.35-3-2.49-6.1-3.67-9.17a78.28,78.28,0,0,0-6.91-14.74c-2.18-3.38-5.09-5.83-8.2-8.31-.5-.4-1.21.3-.71.7a36.24,36.24,0,0,1,8.77,9.25c3.21,5.19,5.2,11.08,7.38,16.74.95,2.46,1.95,4.9,3,7.29,1.42,3.08,3.18,5.91,4.38,9.11a46.75,46.75,0,0,1,2.39,21.37,26.68,26.68,0,0,1-7,15.93c-3.26,3.49-7.21,6.28-10.9,9.28a40.82,40.82,0,0,0-9.46,10.12c-2.56,4.14-3.37,8.83-3.56,13.61a129.52,129.52,0,0,0,1,18.57c.59,5.4.86,11.12,2.33,16.36,2.6,9.34,10.46,15.36,17.14,21.77,7.57,7.26,12.22,15.92,11.38,26.63-.18,2.34-.78,4.95-2.7,6.47a6.85,6.85,0,0,1-8.4.54c-4.1-2.38-6.57-6.73-10.25-9.61-8.62-6.74-19.34-9.7-29.1-14.31a44.08,44.08,0,0,1-13.56-9.37c-4.66-5-6.44-11-8.08-17.46-1.47-5.81-3.64-10.58-8.58-14.19-4.61-3.37-10.36-5-15.81-6.46s-10.71-2.84-15.53-6.1a32.51,32.51,0,0,1-10.65-12.38c-5.42-10.69-5.27-24.54,1.29-34.65s18-16.3,27.67-22.74c10.38-6.9,20.5-14.55,27.53-25,2.55-3.78,4.3-8,6.48-12A79.77,79.77,0,0,1,209,95.5c3.06-3.78,6.76-7.37,11.33-9.21,4.83-2,9.67-.61,13.69,2.45C234.55,89.13,235,88.26,234.54,87.88Z" style="fill: #999"/>
            </g>
            <g style="mix-blend-mode: overlay">
              <path d="M237.17,136.9c-21.3-5.74-44.24-2.46-60.63,13.1-7.37,8.2-18.84,19.67-18.84,32,0,15.56,14.75,18.84,24.58,27.85,9,8.19,13.93,27.85,26.22,31.13,18,5.74,6.55-14.74,5.73-23.76C211,189.33,233.07,182,243.72,161.47c3.28-6.55,4.1-16.38-1.64-22.11Z" style="fill: #999"/>
            </g>
            <path d="M154.53,292.52a12.39,12.39,0,0,0,6.18,12.39c7.66,4.75,17,1,28.45,5.51,0,0-4.48-3.61-17.37-4.4S155.4,297.28,154.53,292.52Z" style="fill: #dfecbf"/>
            <path d="M103.08,312.05s1.57,5.68,8.43,8.7,15.82.94,17.55,8.13.36,9,2,13.39v-9.43a19.58,19.58,0,0,0-1.77-7.86C127.44,321.35,109.76,323.51,103.08,312.05Z" style="fill: #dfecbf"/>
            <path d="M95,278.65s1.2-7.49,3.87-10,5.41-1.3,19.3-1.69l-11.58-1s-7.55-1.52-9.59,1.74S95,278.65,95,278.65Z" style="fill: #dfecbf"/>
            <g style="mix-blend-mode: overlay">
              <path d="M12.2,111.71c-1.07,10.33-.51,20,2,27.4,6,17.54,24.79,13.91,39.31,7.87,10.88-5.45,36.29-20.57,36.89-34.48C91,90.13,65,74.4,74,49.61c5.44-15.12,20-18.75,31.45-27.82A32.41,32.41,0,0,0,114,11.85,179,179,0,0,0,12.2,111.71Z" style="fill: #b3b3b3"/>
            </g>
            <g style="mix-blend-mode: overlay">
              <path d="M270.18,25.59c.5,1,1,1.92,1.6,2.85,10.89,15.72,28.43,18.75,35.08,38.1,4.23,15.12,1.21,26,16.93,34.47,5.84,3.38,12.29,5.51,18.66,7.66A179.25,179.25,0,0,0,270.18,25.59Z" style="fill: #b3b3b3"/>
            </g>
            <g style="mix-blend-mode: overlay">
              <path d="M328.63,196.57c-5.44,12.09-19.95,23.58-19.35,37.49.6,16.94,26,4.84,24.79,26.61A47,47,0,0,1,333,268.1,179.53,179.53,0,0,0,356.62,170a33.93,33.93,0,0,0-5-2.42C329.84,160.28,334.68,184.47,328.63,196.57Z" style="fill: #b3b3b3"/>
            </g>
            <g style="mix-blend-mode: overlay">
              <path d="M113.94,276.09c-9.68,0-13.52,1.76-15.12,16-1.08,9.55,7.26,11.79,14.21,18.15,6.65,6,22.07,10.28,27.21,17.84,4.54,6.65,12.7,15.72,20,11.19,5.14-3,2.55-13.13,16-21.17,12.93-7.71-15.58-.25-23.29-12.1-9.21-14.18-22.07-19.35-34.47-29Z" style="fill: #b3b3b3"/>
            </g>
            <g style="mix-blend-mode: multiply">
              <path d="M70.86,321c-.66-15.37-9.09-26.57-17-40.19-4.66-8.65-6.65-17.3-12.64-25.29-6-8.65-14-10.64-22-17.3-8.75-6.9-11.76-21.78-17.2-32.49A178.49,178.49,0,0,0,70.86,321Z" style="fill: #ccc"/>
            </g>
          </g>
        </g>
      </g>
    </g>
  </g>
</svg>