<svg xmlns="http://www.w3.org/2000/svg" width="147.277" height="172.946" viewBox="0 0 147.277 172.946">
  <g id="Group_1108" data-name="Group 1108" transform="translate(21738 -3635)">
    <g id="shield" transform="translate(-21738 3635)">
      <path id="Path_1283" data-name="Path 1283" d="M140,115.492a87.254,87.254,0,0,1-20.9,32.555c-10.494,10.247-24.235,18.389-40.842,24.2a12.491,12.491,0,0,1-3.969.7H74.14a12.682,12.682,0,0,1-2.436-.24,13.162,13.162,0,0,1-1.674-.457c-16.627-5.8-30.385-13.938-40.889-24.185A87.089,87.089,0,0,1,8.247,115.516C-.194,92.61.286,67.376.673,47.1l.007-.311c.078-1.674.128-3.433.156-5.376A18.33,18.33,0,0,1,18.1,23.455c19.884-1.11,35.267-7.595,48.41-20.406l.115-.106a11.079,11.079,0,0,1,15.041,0l.112.106c13.146,12.811,28.528,19.3,48.413,20.406a18.33,18.33,0,0,1,17.26,17.957c.028,1.955.078,3.712.156,5.376l0,.132C147.991,67.235,148.468,92.519,140,115.492Zm0,0" transform="translate(-0.5 0)" fill="#f8cb6f"/>
      <path id="Path_1284" data-name="Path 1284" d="M284.658,115.495a87.254,87.254,0,0,1-20.9,32.555c-10.494,10.247-24.235,18.389-40.842,24.2a12.492,12.492,0,0,1-3.969.7V0a11.1,11.1,0,0,1,7.372,2.942l.112.106c13.146,12.811,28.528,19.3,48.413,20.406a18.33,18.33,0,0,1,17.26,17.957c.028,1.955.078,3.712.156,5.376l0,.132C292.651,67.238,293.129,92.521,284.658,115.495Zm0,0" transform="translate(-145.16 -0.003)" fill="rgba(0,0,0,0.15)"/>
      <path id="Path_1285" data-name="Path 1285" d="M177.1,171.5a43.156,43.156,0,0,1-42.95,43.1H134a43.1,43.1,0,1,1,0-86.205h.152A43.155,43.155,0,0,1,177.1,171.5Zm0,0" transform="translate(-60.361 -85.027)" fill="#fff"/>
    </g>
    <g id="lock_1_" data-name="lock (1)" transform="translate(-21684.631 3692.699)">
      <path id="Path_1280" data-name="Path 1280" d="M132.919,0a15.6,15.6,0,0,0-15.586,15.586v9.591a1.2,1.2,0,0,0,1.2,1.2h4.8a1.2,1.2,0,0,0,1.2-1.2V15.586a8.392,8.392,0,1,1,16.785,0v9.591a1.2,1.2,0,0,0,1.2,1.2h4.8a1.2,1.2,0,0,0,1.2-1.2V15.586A15.6,15.6,0,0,0,132.919,0Z" transform="translate(-112.537)" fill="#0d2828"/>
      <path id="Path_1281" data-name="Path 1281" d="M80.661,213.333h28.774a5.994,5.994,0,0,1,5.994,5.994v21.58a5.994,5.994,0,0,1-5.994,5.995H80.661a5.994,5.994,0,0,1-5.994-5.994v-21.58A5.994,5.994,0,0,1,80.661,213.333Z" transform="translate(-74.667 -189.355)" fill="#f8cb6f"/>
      <path id="Path_1282" data-name="Path 1282" d="M214.655,283.128A5.994,5.994,0,1,0,206,288.475l-.926,6.474a1.2,1.2,0,0,0,1.187,1.367h4.8a1.2,1.2,0,0,0,1.211-1.187,1.184,1.184,0,0,0-.012-.182l-.926-6.474A6.016,6.016,0,0,0,214.655,283.128Z" transform="translate(-188.28 -245.962)" fill="#0d2828"/>
    </g>
  </g>
</svg>
